<svg xmlns="http://www.w3.org/2000/svg" width="2200" height="1540" viewBox="0 0 2200 1540">
  <defs>
    <style>
      .bg { fill: #f5f7fb; }
      .title { font: 800 48px Arial, "PingFang SC", "Microsoft YaHei", sans-serif; fill: #111827; }
      .subtitle { font: 400 22px Arial, "PingFang SC", "Microsoft YaHei", sans-serif; fill: #667085; }
      .lane { fill: #ffffff; stroke: #cfd8e3; stroke-width: 1.8; }
      .lane-title { font: 800 26px Arial, "PingFang SC", "Microsoft YaHei", sans-serif; fill: #253449; }
      .card { fill: #ffffff; stroke-width: 2.5; }
      .card-soft { fill: #f8fbff; stroke-width: 2.2; }
      .start { stroke: #0891b2; }
      .api { stroke: #7c3aed; }
      .agent { stroke: #2563eb; }
      .risk { stroke: #dc2626; }
      .data { stroke: #16a34a; }
      .tool { stroke: #f97316; }
      .ops { stroke: #475467; }
      .model { stroke: #0f766e; }
      .card-title { font: 800 24px Arial, "PingFang SC", "Microsoft YaHei", sans-serif; fill: #111827; }
      .card-body { font: 400 17px Arial, "PingFang SC", "Microsoft YaHei", sans-serif; fill: #475467; }
      .small { font: 400 15px Arial, "PingFang SC", "Microsoft YaHei", sans-serif; fill: #667085; }
      .label { font: 800 15px Arial, "PingFang SC", "Microsoft YaHei", sans-serif; fill: #344054; }
      .pill { fill: #eef4ff; stroke: #b2ccff; stroke-width: 1.4; }
      .pill-text { font: 800 15px Arial, "PingFang SC", "Microsoft YaHei", sans-serif; fill: #175cd3; }
      .line { stroke: #667085; stroke-width: 2.6; fill: none; marker-end: url(#arrow); }
      .line-main { stroke: #7c3aed; stroke-width: 3.4; fill: none; marker-end: url(#arrow-purple); }
      .line-agent { stroke: #2563eb; stroke-width: 3.0; fill: none; marker-end: url(#arrow-blue); }
      .line-risk { stroke: #dc2626; stroke-width: 3.0; fill: none; marker-end: url(#arrow-red); }
      .line-data { stroke: #16a34a; stroke-width: 2.8; fill: none; marker-end: url(#arrow-green); }
      .line-tool { stroke: #f97316; stroke-width: 2.8; fill: none; marker-end: url(#arrow-orange); }
      .line-dashed { stroke: #98a2b3; stroke-width: 2.4; fill: none; stroke-dasharray: 7 7; marker-end: url(#arrow); }
    </style>
    <marker id="arrow" markerWidth="14" markerHeight="14" refX="11" refY="7" orient="auto">
      <path d="M2,2 L12,7 L2,12 Z" fill="#667085"/>
    </marker>
    <marker id="arrow-purple" markerWidth="14" markerHeight="14" refX="11" refY="7" orient="auto">
      <path d="M2,2 L12,7 L2,12 Z" fill="#7c3aed"/>
    </marker>
    <marker id="arrow-blue" markerWidth="14" markerHeight="14" refX="11" refY="7" orient="auto">
      <path d="M2,2 L12,7 L2,12 Z" fill="#2563eb"/>
    </marker>
    <marker id="arrow-red" markerWidth="14" markerHeight="14" refX="11" refY="7" orient="auto">
      <path d="M2,2 L12,7 L2,12 Z" fill="#dc2626"/>
    </marker>
    <marker id="arrow-green" markerWidth="14" markerHeight="14" refX="11" refY="7" orient="auto">
      <path d="M2,2 L12,7 L2,12 Z" fill="#16a34a"/>
    </marker>
    <marker id="arrow-orange" markerWidth="14" markerHeight="14" refX="11" refY="7" orient="auto">
      <path d="M2,2 L12,7 L2,12 Z" fill="#f97316"/>
    </marker>
  </defs>

  <rect class="bg" width="2200" height="1540"/>

  <text class="title" x="72" y="70">MindBridge 全项目工作流</text>
  <text class="subtitle" x="72" y="108">模型准备与启动、学生 SSE 对话、多 Agent 编排、RAG 知识库、风险报告、后台工具、评测与发布闭环</text>

  <rect class="lane" x="48" y="132" width="2104" height="190" rx="26"/>
  <text class="lane-title" x="82" y="176">0. 模型、启动与交付链路</text>

  <rect class="card model" x="92" y="210" width="250" height="78" rx="10"/>
  <text class="card-title" x="118" y="244">训练数据</text>
  <text class="card-body" x="118" y="271">data/lora/*.jsonl</text>

  <rect class="card model" x="402" y="210" width="250" height="78" rx="10"/>
  <text class="card-title" x="428" y="244">LoRA 微调</text>
  <text class="card-body" x="428" y="271">Qwen2.5-7B adapter</text>

  <rect class="card model" x="712" y="210" width="250" height="78" rx="10"/>
  <text class="card-title" x="738" y="244">模型产物</text>
  <text class="card-body" x="738" y="271">GGUF + Modelfile</text>

  <rect class="card model" x="1022" y="210" width="280" height="78" rx="10"/>
  <text class="card-title" x="1048" y="244">模型服务</text>
  <text class="card-body" x="1048" y="271">Ollama / OpenAI</text>

  <rect class="card ops" x="1362" y="210" width="300" height="78" rx="10"/>
  <text class="card-title" x="1388" y="244">启动脚本</text>
  <text class="card-body" x="1388" y="271">run-dev / docker compose</text>

  <rect class="card ops" x="1722" y="210" width="330" height="78" rx="10"/>
  <text class="card-title" x="1748" y="244">Spring Boot 应用</text>
  <text class="card-body" x="1748" y="271">WebFlux + JPA + Redis + MCP</text>

  <path class="line" d="M342 249 H402"/>
  <path class="line" d="M652 249 H712"/>
  <path class="line" d="M962 249 H1022"/>
  <path class="line" d="M1302 249 H1362"/>
  <path class="line" d="M1662 249 H1722"/>

  <rect class="lane" x="48" y="350" width="2104" height="195" rx="26"/>
  <text class="lane-title" x="82" y="394">1. 入口与权限 / API 层</text>

  <rect class="card start" x="92" y="430" width="210" height="78" rx="10"/>
  <text class="card-title" x="118" y="463">学生入口</text>
  <text class="card-body" x="118" y="490">陪伴聊天</text>

  <rect class="card start" x="342" y="430" width="230" height="78" rx="10"/>
  <text class="card-title" x="368" y="463">管理员入口</text>
  <text class="card-body" x="368" y="490">看板 / 知识 / 报告</text>

  <rect class="card start" x="632" y="430" width="235" height="78" rx="10"/>
  <text class="card-title" x="658" y="463">Web 前端</text>
  <text class="card-body" x="658" y="490">static/index.html</text>

  <rect class="card api" x="927" y="430" width="260" height="78" rx="10"/>
  <text class="card-title" x="953" y="463">Spring Security</text>
  <text class="card-body" x="953" y="490">Basic Auth + 角色</text>

  <rect class="card api" x="1247" y="410" width="250" height="76" rx="10"/>
  <text class="card-title" x="1273" y="443">ChatController</text>
  <text class="card-body" x="1273" y="469">/api/chat/stream</text>

  <rect class="card api" x="1247" y="498" width="250" height="76" rx="10"/>
  <text class="card-title" x="1273" y="531">Profile / Status</text>
  <text class="card-body" x="1273" y="557">账号信息 + 模型状态</text>

  <rect class="card api" x="1582" y="410" width="280" height="76" rx="10"/>
  <text class="card-title" x="1608" y="443">Admin APIs</text>
  <text class="card-body" x="1608" y="469">知识库 / 报告 / 预警</text>

  <rect class="card api" x="1902" y="430" width="210" height="78" rx="10"/>
  <text class="card-title" x="1928" y="463">HomeController</text>
  <text class="card-body" x="1928" y="490">根路径返回首页</text>

  <path class="line" d="M302 469 H632"/>
  <path class="line" d="M572 469 H632"/>
  <path class="line" d="M867 469 H927"/>
  <path class="line" d="M1187 452 H1247"/>
  <path class="line" d="M1187 486 C1210 486 1215 536 1247 536"/>
  <path class="line" d="M1187 469 C1365 469 1400 448 1582 448"/>
  <path class="line" d="M867 469 C1280 362 1730 362 1902 430"/>

  <rect class="lane" x="48" y="575" width="2104" height="445" rx="26"/>
  <text class="lane-title" x="82" y="619">2. 学生对话主链路：受控多 Agent Loop</text>

  <rect class="pill" x="92" y="648" width="730" height="46" rx="10"/>
  <text class="pill-text" x="116" y="678">核心分支：CHAT 直接陪伴回复；CONSULT / RISK 才进入 RAG 检索、风险守护和心理支持回复</text>

  <rect class="card api" x="92" y="730" width="230" height="104" rx="10"/>
  <text class="card-title" x="118" y="765">ChatService</text>
  <text class="card-body" x="118" y="793">会话创建 / 消息保存</text>
  <text class="card-body" x="118" y="819">隐私脱敏 / SSE 流转</text>

  <rect class="card api" x="382" y="730" width="280" height="104" rx="10"/>
  <text class="card-title" x="408" y="765">AgentRuntimeService</text>
  <text class="card-body" x="408" y="793">MAX_STEPS = 8</text>
  <text class="card-body" x="408" y="819">supports() 选择下个 Agent</text>

  <rect class="card agent" x="742" y="682" width="250" height="88" rx="10"/>
  <text class="card-title" x="768" y="716">MemoryAgent</text>
  <text class="card-body" x="768" y="744">Redis 优先，DB 兜底</text>

  <rect class="card agent" x="1062" y="682" width="270" height="88" rx="10"/>
  <text class="card-title" x="1088" y="716">SupervisorAgent</text>
  <text class="card-body" x="1088" y="744">CHAT / CONSULT / RISK</text>

  <rect class="card agent" x="1442" y="640" width="260" height="88" rx="10"/>
  <text class="card-title" x="1468" y="674">CompanionAgent</text>
  <text class="card-body" x="1468" y="702">普通聊天回复规划</text>

  <rect class="card agent" x="742" y="865" width="250" height="88" rx="10"/>
  <text class="card-title" x="768" y="899">KnowledgeAgent</text>
  <text class="card-body" x="768" y="927">改写 query + RAG 检索</text>

  <rect class="card risk" x="1062" y="865" width="270" height="88" rx="10"/>
  <text class="card-title" x="1088" y="899">RiskGuardianAgent</text>
  <text class="card-body" x="1088" y="927">词库硬规则 + 后台评估</text>

  <rect class="card agent" x="1442" y="865" width="260" height="88" rx="10"/>
  <text class="card-title" x="1468" y="899">CounselorAgent</text>
  <text class="card-body" x="1468" y="927">结合 RAG / 风险生成策略</text>

  <rect class="card model" x="1802" y="720" width="260" height="104" rx="10"/>
  <text class="card-title" x="1828" y="755">AiClient</text>
  <text class="card-body" x="1828" y="783">Spring AI 统一适配</text>
  <text class="card-body" x="1828" y="809">complete() + stream()</text>

  <rect class="card-soft start" x="1802" y="870" width="260" height="82" rx="10"/>
  <text class="card-title" x="1828" y="903">SSE 返回学生端</text>
  <text class="card-body" x="1828" y="930">meta / token / done</text>

  <path class="line-main" d="M1497 448 C1540 570 200 570 207 730"/>
  <path class="line-main" d="M322 782 H382"/>
  <path class="line-main" d="M662 782 C704 782 700 726 742 726"/>
  <path class="line-agent" d="M992 726 H1062"/>
  <path class="line-agent" d="M1332 706 C1380 706 1390 684 1442 684"/>
  <text class="label" x="1378" y="665">CHAT</text>
  <path class="line-agent" d="M1702 684 C1760 684 1760 772 1802 772"/>
  <path class="line-agent" d="M1200 770 C1200 828 870 810 867 865"/>
  <text class="label" x="1008" y="824">CONSULT / RISK</text>
  <path class="line-agent" d="M992 909 H1062"/>
  <path class="line-risk" d="M1332 909 H1442"/>
  <path class="line-agent" d="M1702 909 C1765 909 1760 790 1802 790"/>
  <path class="line-main" d="M1932 824 V870"/>
  <path class="line-main" d="M1802 910 C1550 1005 325 1000 207 834"/>

  <rect class="lane" x="48" y="1050" width="2104" height="285" rx="26"/>
  <text class="lane-title" x="82" y="1094">3. 数据、RAG、后台报告与工具闭环</text>

  <rect class="card data" x="92" y="1150" width="245" height="96" rx="10"/>
  <text class="card-title" x="118" y="1185">MySQL / H2</text>
  <text class="card-body" x="118" y="1213">用户、会话、消息</text>
  <text class="card-body" x="118" y="1238">报告、知识切块</text>

  <rect class="card data" x="387" y="1150" width="220" height="96" rx="10"/>
  <text class="card-title" x="413" y="1185">Redis</text>
  <text class="card-body" x="413" y="1213">短期记忆</text>
  <text class="card-body" x="413" y="1238">24h TTL 会话缓存</text>

  <rect class="card data" x="657" y="1150" width="280" height="96" rx="10"/>
  <text class="card-title" x="683" y="1185">KnowledgeService</text>
  <text class="card-body" x="683" y="1213">切块 / 入库 / 混合检索</text>
  <text class="card-body" x="683" y="1238">Chroma 优先，BM25 兜底</text>

  <rect class="card data" x="987" y="1150" width="230" height="96" rx="10"/>
  <text class="card-title" x="1013" y="1185">Chroma</text>
  <text class="card-body" x="1013" y="1213">可选向量镜像</text>
  <text class="card-body" x="1013" y="1238">use-chroma=true</text>

  <rect class="card risk" x="1267" y="1150" width="255" height="96" rx="10"/>
  <text class="card-title" x="1293" y="1185">心理报告</text>
  <text class="card-body" x="1293" y="1213">CONSULT / RISK 生成</text>
  <text class="card-body" x="1293" y="1238">情绪、风险、置信度</text>

  <rect class="card tool" x="1572" y="1150" width="250" height="96" rx="10"/>
  <text class="card-title" x="1598" y="1185">工具编排</text>
  <text class="card-body" x="1598" y="1213">先写 Excel</text>
  <text class="card-body" x="1598" y="1238">HIGH 再发预警</text>

  <rect class="card tool" x="1872" y="1150" width="240" height="96" rx="10"/>
  <text class="card-title" x="1898" y="1185">MCP / HTTP / SMTP</text>
  <text class="card-body" x="1898" y="1213">Excel 台账</text>
  <text class="card-body" x="1898" y="1238">邮件或日志预警</text>

  <rect class="pill" x="92" y="1280" width="610" height="36" rx="9"/>
  <text class="pill-text" x="116" y="1304">管理员链路：上传知识文件 -> 解析 PDF/MD/TXT -> KnowledgeService 入库；后台看板读取报告、Excel、Alert 记录</text>

  <path class="line-data" d="M207 834 C210 1030 215 1105 215 1150"/>
  <path class="line-data" d="M207 834 C245 1070 495 1080 497 1150"/>
  <path class="line-data" d="M867 953 C867 1040 797 1070 797 1150"/>
  <path class="line-data" d="M937 1198 H987"/>
  <path class="line-data" d="M657 1198 C535 1120 320 1120 260 1150"/>
  <path class="line-risk" d="M1197 953 C1210 1060 1395 1060 1395 1150"/>
  <path class="line-tool" d="M1522 1198 H1572"/>
  <path class="line-tool" d="M1822 1198 H1872"/>
  <path class="line-dashed" d="M1862 448 C2025 700 2010 1035 1992 1150"/>
  <path class="line-dashed" d="M1862 448 C1660 1015 1395 1080 1395 1150"/>
  <path class="line-dashed" d="M1497 536 C1660 620 790 1045 797 1150"/>

  <rect class="lane" x="48" y="1362" width="2104" height="126" rx="26"/>
  <text class="lane-title" x="82" y="1405">4. 评测、部署依赖与发布</text>

  <rect class="card-soft ops" x="92" y="1428" width="430" height="42" rx="10"/>
  <text class="card-body" x="118" y="1455">RagEvaluationRunner -> KnowledgeService -> target/rag-eval-report.json</text>

  <rect class="card-soft ops" x="572" y="1428" width="420" height="42" rx="10"/>
  <text class="card-body" x="598" y="1455">docker-compose: MySQL / Redis / Chroma / Mailpit</text>

  <rect class="card-soft ops" x="1042" y="1428" width="410" height="42" rx="10"/>
  <text class="card-body" x="1068" y="1455">package-release: 应用包与 GGUF 模型分开发送</text>

  <rect class="card-soft ops" x="1502" y="1428" width="360" height="42" rx="10"/>
  <text class="card-body" x="1528" y="1455">默认账号: student / admin 演示登录</text>

  <rect class="card-soft ops" x="1902" y="1428" width="210" height="42" rx="10"/>
  <text class="card-body" x="1928" y="1455">端口: 8080</text>
</svg>
